<?xml version="1.0" encoding="UTF-8" standalone="no"?>
<svg
   xmlns:dc="http://purl.org/dc/elements/1.1/"
   xmlns:cc="http://creativecommons.org/ns#"
   xmlns:rdf="http://www.w3.org/1999/02/22-rdf-syntax-ns#"
   xmlns:svg="http://www.w3.org/2000/svg"
   xmlns="http://www.w3.org/2000/svg"
   xmlns:sodipodi="http://sodipodi.sourceforge.net/DTD/sodipodi-0.dtd"
   xmlns:inkscape="http://www.inkscape.org/namespaces/inkscape"
   height="24"
   width="24"
   version="1.1"
   id="svg40"
   sodipodi:docname="wcs.svg"
   inkscape:version="0.92.4 (5da689c313, 2019-01-14)"
   inkscape:export-filename="C:\Users\mohrm\Desktop\icon.png"
   inkscape:export-xdpi="96"
   inkscape:export-ydpi="96">
  <metadata
     id="metadata46">
    <rdf:RDF>
      <cc:Work
         rdf:about="">
        <dc:format>image/svg+xml</dc:format>
        <dc:type
           rdf:resource="http://purl.org/dc/dcmitype/StillImage" />
      </cc:Work>
    </rdf:RDF>
  </metadata>
  <defs
     id="defs44" />
  <sodipodi:namedview
     pagecolor="#ffffff"
     bordercolor="#666666"
     borderopacity="1"
     objecttolerance="10"
     gridtolerance="10"
     guidetolerance="10"
     inkscape:pageopacity="0"
     inkscape:pageshadow="2"
     inkscape:window-width="1920"
     inkscape:window-height="1148"
     id="namedview42"
     showgrid="false"
     inkscape:zoom="19.666667"
     inkscape:cx="5.6835917"
     inkscape:cy="18.842195"
     inkscape:window-x="-8"
     inkscape:window-y="-8"
     inkscape:window-maximized="1"
     inkscape:current-layer="svg40" />
  <g
     transform="matrix(0.70898356,0,0,0.70898356,0.55669498,0.99334434)"
     id="g38">
    <path
       d="m 28.916572,6.9339618 -7.322822,0.5972879 0.875,3.3750003 0.1875,3.0625 8.221475,0.03154 -0.158975,-3.344045 z"
       id="path2"
       inkscape:connector-curvature="0"
       style="fill:#2f5074" />
    <path
       d="m 28.916572,21.066629 -7.322821,-0.597288 0.874999,-3.374999 0.1875,-3.0625 8.221475,-0.03154 -0.158975,3.344044 z"
       id="path4"
       inkscape:connector-curvature="0"
       style="fill:#6e97c4" />
    <path
       d="m 28.916572,21.066629 -7.322821,-0.597288 -1.78125,3.46875 -3.725821,3.396169 5.656855,-0.972272 4.485707,-2.231806 z"
       id="path6"
       inkscape:connector-curvature="0"
       style="fill:#2f5075" />
    <path
       d="m 16.086679,27.33426 -3.447144,-3.005204 -2.032932,-3.844892 5.518398,-0.108573 5.46875,0.09375 -1.78125,3.46875 -3.72582,3.396169 z"
       id="path8"
       inkscape:connector-curvature="0"
       style="fill:#6e97c4" />
    <path
       d="m 10.606603,20.484164 10.987148,-0.01482 0.874999,-3.375 0.1875,-3.0625 -13.1562493,-0.0625 0.1875011,3.687499 z"
       id="path10"
       inkscape:connector-curvature="0"
       style="fill:#2f5075" />
    <path
       d="m 16.086679,27.33426 -3.535533,-0.353553 -4.5078063,-1.811962 -3.889087,-2.386485 -1.37002,-1.723573 4.993942,-0.53033 2.8284273,-0.04419 2.032933,3.844893 z"
       id="path12"
       inkscape:connector-curvature="0"
       style="fill:#2f5075" />
    <path
       d="m 2.9481787,21.066629 -1.760679,-3.659788 -0.403356,-3.406545 8.715857,-0.03095 0.1875001,3.687499 0.9191022,2.827323 -2.8284283,0.04419 z"
       id="path14"
       inkscape:connector-curvature="0"
       style="fill:#6e97c4" />
    <path
       d="M 2.9481786,6.9339618 1.1875,10.59375 0.7841437,14.000296 9.5,14.03125 9.6875,10.34375 10.606602,7.5164277 7.7781746,7.4722335 Z"
       id="path16"
       inkscape:connector-curvature="0"
       style="fill:#2f5074" />
    <path
       d="M 16.086679,0.66633075 12.551145,1.0198841 8.0433396,2.8318453 4.1542523,5.2183307 2.784233,6.9419034 7.7781746,7.4722335 10.606602,7.5164277 12.639534,3.6715346 Z"
       id="path18"
       inkscape:connector-curvature="0"
       style="fill:#6e97c4" />
    <path
       d="M 16.086679,0.66633075 12.639534,3.6715346 10.606602,7.5164277 16.125,7.625 21.59375,7.53125 19.8125,4.0625 Z"
       id="path20"
       inkscape:connector-curvature="0"
       style="fill:#2f5074" />
    <path
       d="M 28.916572,6.9339618 21.59375,7.53125 19.8125,4.0625 16.086679,0.66633075 21.743534,1.6386026 26.229242,3.8704083 Z"
       id="path22"
       inkscape:connector-curvature="0"
       style="fill:#6e97c4" />
    <path
       d="m 10.606602,7.5164277 10.987148,0.014822 0.875,3.3750003 0.1875,3.0625 L 9.5,14.03125 9.6875,10.34375 Z"
       id="path24"
       inkscape:connector-curvature="0"
       style="fill:#6e97c4" />
    <path
       d="M 16,1.0775368 C 7.8848772,4.6019258 6.5323568,22.22387 16,26.923055"
       id="path26"
       inkscape:connector-curvature="0"
       style="fill:none;stroke:#ffffff;stroke-width:1.20000005" />
    <path
       d="M 16,1.0775368 C 25.467643,5.776722 24.115123,23.398666 16,26.923055"
       id="path28"
       inkscape:connector-curvature="0"
       style="fill:none;stroke:#ffffff;stroke-width:1.20000005" />
    <path
       d="M 1.1222749,14.000295 H 30.877725"
       id="path30"
       inkscape:connector-curvature="0"
       style="fill:none;stroke:#ffffff;stroke-width:1.20000005" />
    <path
       d="m 2.9481786,6.9339618 c 7.5741154,1.0094764 18.3942774,1.0094764 25.9683934,0"
       id="path32"
       inkscape:connector-curvature="0"
       style="fill:none;stroke:#ffffff;stroke-width:1.20000005" />
    <path
       d="m 2.9481786,21.06663 c 7.5741154,-1.009477 18.3942774,-1.009477 25.9683934,0"
       id="path34"
       inkscape:connector-curvature="0"
       style="fill:none;stroke:#ffffff;stroke-width:1.20000005" />
    <path
       d="m 6.9656949,13.809332 c 0,6.713955 -5.4228716,12.15669 -12.1123228,12.15669 -6.6894511,0 -12.1123231,-5.442735 -12.1123231,-12.15669 0,-6.7139549 5.422872,-12.1566907 12.1123231,-12.1566907 6.6894512,0 12.1123228,5.4427358 12.1123228,12.1566907 z"
       transform="matrix(1.2562294,0,0,1.0871757,22.465345,-1.0128736)"
       id="path36"
       inkscape:connector-curvature="0"
       style="fill:none;stroke:#2b3b4d;stroke-width:1.34144199" />
  </g>
  <text
     xml:space="preserve"
     style="font-style:normal;font-weight:normal;font-size:53.33333206px;line-height:1.25;font-family:sans-serif;letter-spacing:0px;word-spacing:0px;fill:#000000;fill-opacity:1;stroke:none"
     x="-19.423729"
     y="-3.5593221"
     id="text855"><tspan
       sodipodi:role="line"
       id="tspan853"
       x="-19.423729"
       y="43.628178" /></text>
  <g
     id="g883"
     transform="matrix(0.66786727,0,0,0.66786727,2.2316824,1.8711437)">
    <rect
       id="rect875"
       y="19"
       x="19"
       width="13"
       ry="2.6149368"
       rx="2.6149371"
       height="13"
       style="fill:#5a8c5a" />
    <path
       id="path877"
       style="overflow:visible;fill:#ffffff;fill-rule:evenodd;stroke:#ffffff;stroke-width:2.5999999;stroke-linecap:round;stroke-linejoin:round"
       d="m 21.6,25.499999 h 7.8"
       inkscape:connector-curvature="0" />
    <path
       id="path879"
       style="overflow:visible;fill:#ffffff;fill-rule:evenodd;stroke:#ffffff;stroke-width:2.5999999;stroke-linecap:round;stroke-linejoin:round"
       d="M 25.5,29.399999 V 21.6"
       inkscape:connector-curvature="0" />
    <path
       id="path881"
       d="m 20.3,25.499999 h 10.4 c 0,0 0,0 0,-2.6 C 30.7,20.3 30.05,20.3 25.5,20.3 c -4.55,0 -5.2,0 -5.2,2.599999 0,2.6 0,2.6 0,2.6 z"
       inkscape:connector-curvature="0"
       style="opacity:0.3;fill:#fcffff;fill-rule:evenodd" />
  </g>
  <text
     xml:space="preserve"
     style="font-style:normal;font-weight:normal;font-size:88.9164505px;line-height:1.25;font-family:sans-serif;letter-spacing:0px;word-spacing:0px;fill:#c20b1e;fill-opacity:1;stroke:#ffffff;stroke-width:0.63074166;stroke-linecap:round;stroke-miterlimit:4;stroke-dasharray:none;stroke-opacity:1"
     x="-1.1778384"
     y="23.111359"
     id="text900"><tspan
       sodipodi:role="line"
       id="tspan898"
       x="-1.1778384"
       y="23.111359"
       style="font-size:24px;fill:#c20b1e;fill-opacity:1;stroke:#ffffff;stroke-width:0.63074166;stroke-linecap:round;stroke-miterlimit:4;stroke-dasharray:none;stroke-opacity:1;letter-spacing:0.07px;-inkscape-font-specification:'sans-serif Bold';font-family:sans-serif;font-weight:bold;font-style:normal;font-stretch:normal;font-variant:normal">2</tspan></text>
</svg>
